# xmcd CD database file
#
# Track frame offsets:
#	150
#	23152
#	44177
#	57932
#	79485
#	95447
#	114320
#	136502
#	165270
#	186327
#	201812
#	216405
#	232135
#	251065
#
# Disc length: 3589 seconds
#
# Revision: 1
# Processed by: cddbd v1.5.1PL0 Copyright (c) Steve Scherf et al.
# Submitted via: jetAudio 5
#
DISCID=c80e030e
DTITLE=Zé Ramalho - RCA - 100 Anos de Música [CD01)
DYEAR=2001
DGENRE=Other
TTITLE0=Admirável Gado Novo
TTITLE1=Frevo Mulher
TTITLE2=Falido Transatlântico
TTITLE3=Pra Não Dizer que Não Falei das Flores
TTITLE4=Leva Eu Saudade
TTITLE5=Mourão Voltado em Questões
TTITLE6=Profetas
TTITLE7=Cidades e Lendas
TTITLE8=Seres Alados
TTITLE9=Violando com Hermeto (instrumental)
TTITLE10=Ele Disse
TTITLE11=Martelo Rap-Ecológico
TTITLE12=Os Últimos Dias
TTITLE13=Você Ainda Pode Sonhar (Lucy in the Sky With Diamond)
EXTD=
EXTT0=
EXTT1=
EXTT2=
EXTT3=
EXTT4=
EXTT5=
EXTT6=
EXTT7=
EXTT8=
EXTT9=
EXTT10=
EXTT11=
EXTT12=
EXTT13=
PLAYORDER=
